{"title":"Pacific Rim 2013 CAMRip AC3 XviD - TODE","uid":8691971,"size":755042085,"categoryP":"video","categoryS":"movies","magnet":"?xt=urn:btih:de462a8a629e442ef6214aad7a9944d07169af11&amp;dn=Pacific+Rim+2013+CAMRip+AC3+XviD+-+TODE&amp;tr=udp%3A%2F%2Ftracker.openbittorrent.com%3A80&amp;tr=udp%3A%2F%2Fopen.demonii.com%3A1337&amp;tr=udp%3A%2F%2Ftracker.coppersurfer.tk%3A6969&amp;tr=udp%3A%2F%2Fexodus.desync.com%3A6969","seeders":1,"leechers":0,"uploader":"xxxlavalxxx","files":-1,"time":1373900125,"description":"\n &lt;a href=&quot;\nhttp://www.imdb.com/title/tt1663662/&quot; rel=&quot;nofollow&quot; target=&quot;_NEW&quot;&gt;\nhttp://www.imdb.com/title/tt1663662/&lt;/a&gt;\n\n\n\n\n As a war between humankind and monstrous sea creatures wages on, a former pilot and a trainee are paired up to drive a seemingly obsolete special weapon in a desperate effort to save the world from the apocalypse. \n\n\n\n Director:\n Guillermo del Toro \n\n Writers:\n Travis Beacham (screenplay), Guillermo del Toro (screenplay)\n\n Stars:\n Charlie Hunnam, Idris Elba, Rinko Kikuchi \n\n Genres:\n   Action |  Adventure |  Fantasy |  Sci-Fi \n\n Country:\n USA \n\n Language:\n English | Japanese | Cantonese \n\n\n Thanks: UNiQUE\n\n\n General\n Complete name                            : D:downloadsPacific Rim 2013 CAMRip AC3 XviD - TODEPacific Rim 2013 CAMRip AC3 XviD - TODE.avi\n Format                                   : AVI\n Format/Info                              : Audio Video Interleave\n File size                                : 701 MiB\n Duration                                 : 2h 2mn\n Overall bit rate                         : 801 Kbps\n Writing application                      : Lavf55.3.100\n\n Video\n ID                                       : 0\n Format                                   : MPEG-4 Visual\n Format profile                           : Simple@L3\n Format settings, BVOP                    : No\n Format settings, QPel                    : No\n Format settings, GMC                     : No warppoints\n Format settings, Matrix                  : Default (H.263)\n Codec ID                                 : XVID\n Codec ID/Hint                            : XviD\n Duration                                 : 2h 2mn\n Bit rate                                 : 725 Kbps\n Width                                    : 640 pixels\n Height                                   : 320 pixels\n Display aspect ratio                     : 1.957\n Frame rate                               : 29.383 fps\n Color space                              : YUV\n Chroma subsampling                       : 4:2:0\n Bit depth                                : 8 bits\n Scan type                                : Progressive\n Compression mode                         : Lossy\n Bits/(Pixel*Frame)                       : 0.120\n Stream size                              : 634 MiB (91%)\n Writing library                          : XviD 64\n\n Audio\n ID                                       : 1\n Format                                   : AC-3\n Format/Info                              : Audio Coding 3\n Mode extension                           : CM (complete main)\n Format settings, Endianness              : Big\n Codec ID                                 : 2000\n Duration                                 : 2h 2mn\n Bit rate mode                            : Constant\n Bit rate                                 : 64.0 Kbps\n Channel(s)                               : 2 channels\n Channel positions                        : Front: L R\n Sampling rate                            : 48.0 KHz\n Bit depth                                : 16 bits\n Compression mode                         : Lossy\n Stream size                              : 56.0 MiB (8%)\n Alignment                                : Aligned on interleaves\n Interleave, duration                     : 32 ms (0.94 video frame)\n\n\n\n\n\n\n\nscreens\n\n    &lt;a href=&quot;\thttp://addpix.net/viewer.php?file=12109679261131520157.jpg&quot; rel=&quot;nofollow&quot; target=&quot;_NEW&quot;&gt;\thttp://addpix.net/viewer.php?file=12109679261131520157.jpg&lt;/a&gt;\n    &lt;a href=&quot;\thttp://addpix.net/viewer.php?file=54659142019631754698.jpg&quot; rel=&quot;nofollow&quot; target=&quot;_NEW&quot;&gt;\thttp://addpix.net/viewer.php?file=54659142019631754698.jpg&lt;/a&gt;\n    &lt;a href=&quot;\thttp://addpix.net/viewer.php?file=38243296531228982327.jpg&quot; rel=&quot;nofollow&quot; target=&quot;_NEW&quot;&gt;\thttp://addpix.net/viewer.php?file=38243296531228982327.jpg&lt;/a&gt;\n    &lt;a href=&quot;\thttp://addpix.net/viewer.php?file=90384276953862355074.jpg&quot; rel=&quot;nofollow&quot; target=&quot;_NEW&quot;&gt;\thttp://addpix.net/viewer.php?file=90384276953862355074.jpg&lt;/a&gt;\n    &lt;a href=&quot;\thttp://addpix.net/viewer.php?file=54596866983014697207.jpg&quot; rel=&quot;nofollow&quot; target=&quot;_NEW&quot;&gt;\thttp://addpix.net/viewer.php?file=54596866983014697207.jpg&lt;/a&gt;","torrent":{"xt":"urn:btih:de462a8a629e442ef6214aad7a9944d07169af11","amp;dn":"Pacific+Rim+2013+CAMRip+AC3+XviD+-+TODE","amp;tr":["udp%3A%2F%2Ftracker.openbittorrent.com%3A80","udp%3A%2F%2Fopen.demonii.com%3A1337","udp%3A%2F%2Ftracker.coppersurfer.tk%3A6969","udp%3A%2F%2Fexodus.desync.com%3A6969"],"infoHash":"de462a8a629e442ef6214aad7a9944d07169af11","infoHashBuffer":{"type":"Buffer","data":[222,70,42,138,98,158,68,46,246,33,74,173,122,153,68,208,113,105,175,17]},"announce":[],"urlList":[]}}